<mxfile host="app.diagrams.net" modified="2021-04-26T13:27:25.765Z" agent="5.0 (Windows NT 10.0; Win64; x64) AppleWebKit/537.36 (KHTML, like Gecko) Chrome/90.0.4430.85 Safari/537.36 Edg/90.0.818.46" etag="rauHsJdKa-Zhv0jMmk9s" version="14.6.6" type="github">
  <diagram id="_dmhlKY-OVH1K_Ed6C6u" name="第 1 页">
    <mxGraphModel dx="990" dy="548" grid="1" gridSize="10" guides="1" tooltips="1" connect="1" arrows="1" fold="1" page="1" pageScale="1" pageWidth="827" pageHeight="1169" math="0" shadow="0">
      <root>
        <mxCell id="0" />
        <mxCell id="1" parent="0" />
        <mxCell id="-kuX9BFchEWkm1FDKS3O-17" value="" style="group" vertex="1" connectable="0" parent="1">
          <mxGeometry x="229.95000000000002" y="46.49" width="106.70000000000002" height="123.50999999999999" as="geometry" />
        </mxCell>
        <mxCell id="-kuX9BFchEWkm1FDKS3O-6" value="" style="verticalLabelPosition=bottom;aspect=fixed;html=1;verticalAlign=top;strokeColor=#82b366;align=center;outlineConnect=0;shape=mxgraph.citrix.access_card;shadow=1;sketch=1;fillColor=#d5e8d4;" vertex="1" parent="-kuX9BFchEWkm1FDKS3O-17">
          <mxGeometry x="20.049999999999983" width="66.6" height="90" as="geometry" />
        </mxCell>
        <mxCell id="-kuX9BFchEWkm1FDKS3O-14" value="&lt;b&gt;&lt;font style=&quot;font-size: 16px ; background-color: rgb(230 , 255 , 204)&quot;&gt;URL 访问权限&lt;/font&gt;&lt;/b&gt;" style="text;html=1;strokeColor=none;fillColor=none;align=center;verticalAlign=middle;whiteSpace=wrap;rounded=0;shadow=1;sketch=1;" vertex="1" parent="-kuX9BFchEWkm1FDKS3O-17">
          <mxGeometry y="103.50999999999999" width="106.7" height="20" as="geometry" />
        </mxCell>
        <mxCell id="-kuX9BFchEWkm1FDKS3O-18" value="" style="group" vertex="1" connectable="0" parent="1">
          <mxGeometry x="479.95000000000005" y="46.49" width="106.70000000000005" height="123.50999999999999" as="geometry" />
        </mxCell>
        <mxCell id="-kuX9BFchEWkm1FDKS3O-7" value="" style="verticalLabelPosition=bottom;aspect=fixed;html=1;verticalAlign=top;strokeColor=#b85450;align=center;outlineConnect=0;shape=mxgraph.citrix.access_card;shadow=1;sketch=1;fillColor=#f8cecc;" vertex="1" parent="-kuX9BFchEWkm1FDKS3O-18">
          <mxGeometry x="20.049999999999955" width="66.6" height="90" as="geometry" />
        </mxCell>
        <mxCell id="-kuX9BFchEWkm1FDKS3O-15" value="&lt;b&gt;&lt;font style=&quot;font-size: 16px ; background-color: rgb(255 , 204 , 204)&quot;&gt;对象资源权限&lt;/font&gt;&lt;/b&gt;" style="text;html=1;strokeColor=none;fillColor=none;align=center;verticalAlign=middle;whiteSpace=wrap;rounded=0;shadow=1;sketch=1;" vertex="1" parent="-kuX9BFchEWkm1FDKS3O-18">
          <mxGeometry y="103.50999999999999" width="106.7" height="20" as="geometry" />
        </mxCell>
        <mxCell id="-kuX9BFchEWkm1FDKS3O-19" value="" style="group" vertex="1" connectable="0" parent="1">
          <mxGeometry x="100" y="290" width="120" height="120" as="geometry" />
        </mxCell>
        <mxCell id="-kuX9BFchEWkm1FDKS3O-9" value="" style="pointerEvents=1;shadow=1;html=1;labelPosition=center;verticalLabelPosition=bottom;verticalAlign=top;align=center;fillColor=#505050;shape=mxgraph.mscae.intune.user_group;sketch=1;strokeWidth=1;" vertex="1" parent="-kuX9BFchEWkm1FDKS3O-19">
          <mxGeometry width="120" height="80" as="geometry" />
        </mxCell>
        <mxCell id="-kuX9BFchEWkm1FDKS3O-16" value="&lt;b&gt;&lt;font style=&quot;font-size: 16px&quot;&gt;用户组&lt;/font&gt;&lt;/b&gt;" style="text;html=1;strokeColor=none;fillColor=none;align=center;verticalAlign=middle;whiteSpace=wrap;rounded=0;shadow=1;sketch=1;" vertex="1" parent="-kuX9BFchEWkm1FDKS3O-19">
          <mxGeometry x="30" y="100" width="60" height="20" as="geometry" />
        </mxCell>
        <mxCell id="-kuX9BFchEWkm1FDKS3O-24" value="" style="group" vertex="1" connectable="0" parent="1">
          <mxGeometry x="590" y="290" width="94.5" height="120" as="geometry" />
        </mxCell>
        <mxCell id="-kuX9BFchEWkm1FDKS3O-10" value="" style="outlineConnect=0;dashed=0;verticalLabelPosition=bottom;verticalAlign=top;align=center;html=1;shape=mxgraph.aws3.role;fillColor=#759C3E;gradientColor=none;shadow=1;sketch=1;strokeColor=#000000;strokeWidth=2;" vertex="1" parent="-kuX9BFchEWkm1FDKS3O-24">
          <mxGeometry width="94.5" height="79.5" as="geometry" />
        </mxCell>
        <mxCell id="-kuX9BFchEWkm1FDKS3O-20" value="&lt;b&gt;&lt;font style=&quot;font-size: 16px&quot;&gt;角色&lt;/font&gt;&lt;/b&gt;" style="text;html=1;strokeColor=none;fillColor=none;align=center;verticalAlign=middle;whiteSpace=wrap;rounded=0;shadow=1;sketch=1;" vertex="1" parent="-kuX9BFchEWkm1FDKS3O-24">
          <mxGeometry x="27.25" y="100" width="40" height="20" as="geometry" />
        </mxCell>
        <mxCell id="-kuX9BFchEWkm1FDKS3O-26" value="" style="group" vertex="1" connectable="0" parent="1">
          <mxGeometry x="375" y="540" width="78" height="110" as="geometry" />
        </mxCell>
        <mxCell id="-kuX9BFchEWkm1FDKS3O-13" value="" style="outlineConnect=0;fontColor=#232F3E;gradientColor=none;dashed=0;verticalLabelPosition=bottom;verticalAlign=top;align=center;html=1;fontSize=12;fontStyle=0;aspect=fixed;pointerEvents=1;shape=mxgraph.aws4.user;shadow=1;sketch=1;fillColor=#FFFF00;" vertex="1" parent="-kuX9BFchEWkm1FDKS3O-26">
          <mxGeometry width="78" height="78" as="geometry" />
        </mxCell>
        <mxCell id="-kuX9BFchEWkm1FDKS3O-25" value="&lt;b&gt;&lt;font style=&quot;font-size: 16px&quot;&gt;用户&lt;/font&gt;&lt;/b&gt;" style="text;html=1;strokeColor=none;fillColor=none;align=center;verticalAlign=middle;whiteSpace=wrap;rounded=0;shadow=1;sketch=1;" vertex="1" parent="-kuX9BFchEWkm1FDKS3O-26">
          <mxGeometry x="19" y="90" width="40" height="20" as="geometry" />
        </mxCell>
      </root>
    </mxGraphModel>
  </diagram>
</mxfile>
